<svg version="1.1" id="Layer_1" xmlns="http://www.w3.org/2000/svg" xmlns:xlink="http://www.w3.org/1999/xlink" x="0px" y="0px"
	 width="100%" viewBox="0 0 402 576" enable-background="new 0 0 402 576" xml:space="preserve">
<path fill="#FAFAFA" opacity="1.000000" stroke="none" 
	d="
M40.000000,1.000000 
	C147.688095,1.000000 255.376205,1.000000 363.531799,1.214982 
	C363.999268,1.429964 363.996063,1.859917 363.642487,1.993867 
	C354.522888,3.605025 348.485535,8.376894 345.207886,16.732563 
	C342.861664,22.713634 338.254303,25.297504 331.865448,25.023268 
	C326.054962,24.773857 322.148102,21.846905 320.035248,16.627619 
	C316.436768,7.738451 309.922516,2.387713 300.445923,2.148822 
	C290.674103,1.902487 283.896179,7.270766 280.106720,16.242304 
	C277.657501,22.040903 273.650665,25.219671 267.097961,25.045969 
	C260.861053,24.880642 256.778412,21.926886 254.508347,16.260328 
	C250.914276,7.288715 244.150909,2.155021 234.663666,2.166244 
	C225.243973,2.177387 218.491760,7.195169 214.872314,16.170010 
	C212.544281,21.942633 208.349533,25.066246 201.833954,25.060175 
	C195.470352,25.054247 191.432983,21.862793 189.210083,16.333401 
	C185.599503,7.352228 178.932037,2.243954 169.518738,2.169973 
	C159.815628,2.093715 152.995056,7.357730 149.351318,16.536140 
	C147.083969,22.247496 142.801071,25.082832 136.589600,25.017609 
	C130.296600,24.951527 126.487801,22.416777 123.974594,16.451242 
	C120.175941,7.434469 112.561111,1.984466 103.771866,1.991961 
	C95.404373,1.999097 87.724586,7.636412 84.063034,16.431015 
	C81.893425,21.642179 78.146461,24.682014 72.353951,25.013937 
	C66.242828,25.364115 61.327518,23.204657 59.106953,17.401752 
	C55.662495,8.400510 49.245796,3.506960 40.002323,1.644935 
	C40.000809,1.429960 40.000000,1.000000 40.000000,1.000000 
z"/>
<path fill="#FBFBFB" opacity="1.000000" stroke="none" 
	d="
M364.000000,577.000000 
	C256.311890,577.000000 148.623810,577.000000 40.468304,576.785095 
	C40.000900,576.570190 40.004055,576.140320 40.357651,576.006470 
	C49.237942,574.405579 55.246284,569.882202 58.625587,561.747803 
	C59.600780,559.400391 61.191780,556.907654 63.204956,555.463867 
	C70.934128,549.920654 80.489059,552.964905 84.143372,561.801392 
	C88.326172,571.915833 98.076935,577.537781 107.940063,575.458008 
	C115.933830,573.772400 120.992195,568.742798 124.075241,561.350037 
	C126.409164,555.753601 130.522232,552.781982 136.848190,552.951294 
	C142.836670,553.111572 147.068817,555.740784 149.243042,561.242371 
	C152.866913,570.412170 159.582230,575.803772 169.279709,575.826416 
	C178.917282,575.848938 185.647583,570.620239 189.311218,561.432861 
	C191.531097,555.866089 195.810211,552.908508 202.101501,552.947266 
	C208.402664,552.986145 212.551712,556.052307 214.772049,561.617432 
	C218.358688,570.607178 225.016098,575.734253 234.425049,575.828064 
	C244.121231,575.924805 250.963760,570.681885 254.620148,561.506897 
	C256.889954,555.811279 261.139130,552.927979 267.357361,552.983276 
	C273.561615,553.038391 277.549988,555.651978 280.021210,561.560852 
	C283.784088,570.558289 290.452057,575.629639 300.231812,575.947632 
	C308.588226,576.219360 316.276031,570.365906 319.930573,561.585083 
	C322.099335,556.374146 325.836670,553.324158 331.626984,552.987854 
	C337.739655,552.632812 342.663452,554.812073 344.879547,560.601196 
	C348.329498,569.613464 354.775391,574.465881 363.997681,576.355225 
	C363.999268,576.570190 364.000000,577.000000 364.000000,577.000000 
z"/>
<path fill="#CACACA" opacity="1.000000" stroke="none" 
	d="
M403.000000,2.000000 
	C403.000000,193.025833 403.000000,384.051666 402.716644,575.525146 
	C402.244812,575.957397 402.056335,575.941895 401.926941,575.465698 
	C401.995514,384.690979 402.005188,194.376892 402.008636,4.062801 
	C402.008636,3.399240 401.918945,2.735677 402.153015,2.048427 
	C402.623260,2.016493 402.811615,2.008246 403.000000,2.000000 
z"/>
<path fill="#CACACA" opacity="1.000000" stroke="none" 
	d="
M1.000000,576.000000 
	C1.000000,384.974182 1.000000,193.948334 1.283030,2.473693 
	C1.754239,2.040991 1.942419,2.057105 2.066093,2.533311 
	C1.999565,191.141663 1.996966,379.289917 2.001062,567.438171 
	C2.001123,570.268066 2.084411,573.098022 1.847005,575.951660 
	C1.376768,575.983582 1.188384,575.991760 1.000000,576.000000 
z"/>
<path fill="#F6F6F6" opacity="1.000000" stroke="none" 
	d="
M1.000000,576.500000 
	C1.188384,575.991760 1.376768,575.983582 2.306188,575.987671 
	C15.366167,576.046692 27.685112,576.093506 40.004055,576.140320 
	C40.004055,576.140320 40.000900,576.570190 40.000450,576.785095 
	C27.000000,577.000000 14.000000,577.000000 1.000000,576.500000 
z"/>
<path fill="#F6F6F6" opacity="1.000000" stroke="none" 
	d="
M401.867859,575.926392 
	C402.056335,575.941895 402.244812,575.957397 402.716675,575.986450 
	C402.179596,576.333374 401.360718,576.952698 400.538574,576.957031 
	C388.671692,577.019775 376.804474,577.000000 364.468658,577.000000 
	C364.000000,577.000000 363.999268,576.570190 364.462769,576.291504 
	C377.240112,575.984009 389.553986,575.955200 401.867859,575.926392 
z"/>
<path fill="#F6F6F6" opacity="1.000000" stroke="none" 
	d="
M403.000000,1.500000 
	C402.811615,2.008246 402.623260,2.016493 401.693848,2.012396 
	C388.633911,1.953341 376.314972,1.906629 363.996063,1.859917 
	C363.996063,1.859917 363.999268,1.429964 363.999634,1.214982 
	C377.000000,1.000000 390.000000,1.000000 403.000000,1.500000 
z"/>
<path fill="#F6F6F6" opacity="1.000000" stroke="none" 
	d="
M2.130598,2.073219 
	C1.942419,2.057105 1.754239,2.040991 1.283029,2.012439 
	C1.820417,1.666667 2.639320,1.047354 3.461478,1.043002 
	C15.328290,0.980187 27.195539,1.000000 39.531342,1.000000 
	C40.000000,1.000000 40.000809,1.429960 39.537231,1.708601 
	C26.759300,2.015901 14.444949,2.044560 2.130598,2.073219 
z"/>
<path fill="#020202" opacity="1.000000" stroke="none" 
	d="
M2.066093,2.533311 
	C14.444949,2.044560 26.759300,2.015901 39.538742,1.923576 
	C49.245796,3.506960 55.662495,8.400510 59.106953,17.401752 
	C61.327518,23.204657 66.242828,25.364115 72.353951,25.013937 
	C78.146461,24.682014 81.893425,21.642179 84.063034,16.431015 
	C87.724586,7.636412 95.404373,1.999097 103.771866,1.991961 
	C112.561111,1.984466 120.175941,7.434469 123.974594,16.451242 
	C126.487801,22.416777 130.296600,24.951527 136.589600,25.017609 
	C142.801071,25.082832 147.083969,22.247496 149.351318,16.536140 
	C152.995056,7.357730 159.815628,2.093715 169.518738,2.169973 
	C178.932037,2.243954 185.599503,7.352228 189.210083,16.333401 
	C191.432983,21.862793 195.470352,25.054247 201.833954,25.060175 
	C208.349533,25.066246 212.544281,21.942633 214.872314,16.170010 
	C218.491760,7.195169 225.243973,2.177387 234.663666,2.166244 
	C244.150909,2.155021 250.914276,7.288715 254.508347,16.260328 
	C256.778412,21.926886 260.861053,24.880642 267.097961,25.045969 
	C273.650665,25.219671 277.657501,22.040903 280.106720,16.242304 
	C283.896179,7.270766 290.674103,1.902487 300.445923,2.148822 
	C309.922516,2.387713 316.436768,7.738451 320.035248,16.627619 
	C322.148102,21.846905 326.054962,24.773857 331.865448,25.023268 
	C338.254303,25.297504 342.861664,22.713634 345.207886,16.732563 
	C348.485535,8.376894 354.522888,3.605025 363.642487,1.993867 
	C376.314972,1.906629 388.633911,1.953341 401.411987,2.036084 
	C401.918945,2.735677 402.008636,3.399240 402.008636,4.062801 
	C402.005188,194.376892 401.995514,384.690979 401.926941,575.465698 
	C389.553986,575.955200 377.240112,575.984009 364.461151,576.076538 
	C354.775391,574.465881 348.329498,569.613464 344.879547,560.601196 
	C342.663452,554.812073 337.739655,552.632812 331.626984,552.987854 
	C325.836670,553.324158 322.099335,556.374146 319.930573,561.585083 
	C316.276031,570.365906 308.588226,576.219360 300.231812,575.947632 
	C290.452057,575.629639 283.784088,570.558289 280.021210,561.560852 
	C277.549988,555.651978 273.561615,553.038391 267.357361,552.983276 
	C261.139130,552.927979 256.889954,555.811279 254.620148,561.506897 
	C250.963760,570.681885 244.121231,575.924805 234.425049,575.828064 
	C225.016098,575.734253 218.358688,570.607178 214.772049,561.617432 
	C212.551712,556.052307 208.402664,552.986145 202.101501,552.947266 
	C195.810211,552.908508 191.531097,555.866089 189.311218,561.432861 
	C185.647583,570.620239 178.917282,575.848938 169.279709,575.826416 
	C159.582230,575.803772 152.866913,570.412170 149.243042,561.242371 
	C147.068817,555.740784 142.836670,553.111572 136.848190,552.951294 
	C130.522232,552.781982 126.409164,555.753601 124.075241,561.350037 
	C120.992195,568.742798 115.933830,573.772400 107.940063,575.458008 
	C98.076935,577.537781 88.326172,571.915833 84.143372,561.801392 
	C80.489059,552.964905 70.934128,549.920654 63.204956,555.463867 
	C61.191780,556.907654 59.600780,559.400391 58.625587,561.747803 
	C55.246284,569.882202 49.237942,574.405579 40.357651,576.006470 
	C27.685112,576.093506 15.366167,576.046692 2.588040,575.963928 
	C2.084411,573.098022 2.001123,570.268066 2.001062,567.438171 
	C1.996966,379.289917 1.999565,191.141663 2.066093,2.533311 
M228.787109,31.221413 
	C212.040329,51.862759 183.049164,48.565804 171.502518,24.726551 
	C170.937775,23.560591 170.083115,22.535044 168.926468,20.781673 
	C162.629578,36.298553 152.045807,44.776150 136.182648,44.697887 
	C120.409058,44.620071 110.422615,35.275677 104.151726,20.866779 
	C103.113739,22.284582 102.614410,22.754107 102.370056,23.331532 
	C96.599884,36.966869 86.272285,44.555054 71.544487,44.666801 
	C57.045158,44.776814 46.680481,37.524418 40.657043,24.200397 
	C40.201900,23.193615 38.949146,21.898861 38.021397,21.861057 
	C32.584953,21.639530 27.134893,21.752287 21.504074,21.752287 
	C21.504074,200.129654 21.504074,378.000977 21.504074,556.086304 
	C27.734015,556.086304 33.681679,556.086304 39.576569,556.086304 
	C45.595020,541.653992 55.965057,533.205017 71.693817,533.305847 
	C87.491394,533.407104 97.564857,542.598328 104.083298,557.766785 
	C110.613907,542.079407 120.955170,533.234009 136.823715,533.302917 
	C152.617737,533.371460 162.890930,542.317078 169.386520,558.021851 
	C175.730667,542.188782 186.074799,533.413452 201.899323,533.304077 
	C217.951355,533.193176 228.139206,542.435913 234.833618,557.938904 
	C241.129013,541.912598 251.661194,533.341492 267.453644,533.310242 
	C283.287567,533.278931 293.472412,542.362244 299.792023,557.250366 
	C300.925049,555.431458 301.597473,554.567749 302.045471,553.600159 
	C308.080261,540.566101 318.306885,533.367004 332.606842,533.317505 
	C346.928284,533.267883 357.101715,540.503418 363.243225,553.468018 
	C363.778381,554.597595 365.105377,556.079895 366.126709,556.129883 
	C371.539459,556.394958 376.972076,556.254395 382.446747,556.254395 
	C382.446747,377.755920 382.446747,199.891418 382.446747,21.713640 
	C377.301300,21.713640 372.479523,21.849279 367.670654,21.659067 
	C365.086487,21.556850 364.014587,22.616903 362.953461,24.892885 
	C356.981720,37.701622 346.748138,44.690632 332.656189,44.689240 
	C318.550415,44.687847 308.427795,37.590103 302.226410,24.919237 
	C301.646118,23.733507 300.922241,22.618023 299.734985,20.543978 
	C293.341003,36.070633 282.912476,44.812244 267.024414,44.690563 
	C251.290344,44.570057 241.032715,35.603172 234.835983,20.590399 
	C232.541092,24.638332 230.851349,27.618830 228.787109,31.221413 
z"/>
<path fill="#FEFEFE" opacity="1.000000" stroke="none" 
	d="
M228.974365,30.910370 
	C230.851349,27.618830 232.541092,24.638332 234.835983,20.590399 
	C241.032715,35.603172 251.290344,44.570057 267.024414,44.690563 
	C282.912476,44.812244 293.341003,36.070633 299.734985,20.543978 
	C300.922241,22.618023 301.646118,23.733507 302.226410,24.919237 
	C308.427795,37.590103 318.550415,44.687847 332.656189,44.689240 
	C346.748138,44.690632 356.981720,37.701622 362.953461,24.892885 
	C364.014587,22.616903 365.086487,21.556850 367.670654,21.659067 
	C372.479523,21.849279 377.301300,21.713640 382.446747,21.713640 
	C382.446747,199.891418 382.446747,377.755920 382.446747,556.254395 
	C376.972076,556.254395 371.539459,556.394958 366.126709,556.129883 
	C365.105377,556.079895 363.778381,554.597595 363.243225,553.468018 
	C357.101715,540.503418 346.928284,533.267883 332.606842,533.317505 
	C318.306885,533.367004 308.080261,540.566101 302.045471,553.600159 
	C301.597473,554.567749 300.925049,555.431458 299.792023,557.250366 
	C293.472412,542.362244 283.287567,533.278931 267.453644,533.310242 
	C251.661194,533.341492 241.129013,541.912598 234.833618,557.938904 
	C228.139206,542.435913 217.951355,533.193176 201.899323,533.304077 
	C186.074799,533.413452 175.730667,542.188782 169.386520,558.021851 
	C162.890930,542.317078 152.617737,533.371460 136.823715,533.302917 
	C120.955170,533.234009 110.613907,542.079407 104.083298,557.766785 
	C97.564857,542.598328 87.491394,533.407104 71.693817,533.305847 
	C55.965057,533.205017 45.595020,541.653992 39.576569,556.086304 
	C33.681679,556.086304 27.734015,556.086304 21.504074,556.086304 
	C21.504074,378.000977 21.504074,200.129654 21.504074,21.752287 
	C27.134893,21.752287 32.584953,21.639530 38.021397,21.861057 
	C38.949146,21.898861 40.201900,23.193615 40.657043,24.200397 
	C46.680481,37.524418 57.045158,44.776814 71.544487,44.666801 
	C86.272285,44.555054 96.599884,36.966869 102.370056,23.331532 
	C102.614410,22.754107 103.113739,22.284582 104.151726,20.866779 
	C110.422615,35.275677 120.409058,44.620071 136.182648,44.697887 
	C152.045807,44.776150 162.629578,36.298553 168.926468,20.781673 
	C170.083115,22.535044 170.937775,23.560591 171.502518,24.726551 
	C183.049164,48.565804 212.040329,51.862759 228.974365,30.910370 
M66.690559,434.152832 
	C66.024796,434.144562 65.358627,434.116974 64.693329,434.130951 
	C57.223080,434.287781 52.938957,437.870758 52.867737,444.013336 
	C52.792580,450.494751 56.950882,454.061035 64.852432,454.133484 
	C72.176720,454.200623 79.502113,454.146637 86.827019,454.145782 
	C136.770157,454.139862 186.713348,454.158905 236.656296,454.055115 
	C239.194382,454.049835 242.078049,453.564514 244.193695,452.292725 
	C248.395584,449.766876 249.385132,445.572205 247.984680,440.955139 
	C246.628143,436.482849 242.497223,434.134460 236.450775,434.135315 
	C180.182343,434.143402 123.913918,434.148865 66.690559,434.152832 
M55.692726,99.221535 
	C52.583641,102.655846 51.880497,106.515709 53.894295,110.703110 
	C55.961800,115.002182 59.650833,116.179253 64.200134,116.174400 
	C121.993164,116.112740 179.786285,116.138855 237.579346,116.088028 
	C239.351334,116.086472 241.264053,115.817574 242.867416,115.116150 
	C247.270935,113.189743 249.252350,108.823425 248.248352,103.988304 
	C247.209106,98.983528 243.110672,96.189865 236.507629,96.187164 
	C179.214188,96.163704 121.920662,96.131134 64.627556,96.266312 
	C61.825172,96.272926 59.026417,97.815392 55.692726,99.221535 
M208.494644,181.767136 
	C166.863220,181.767136 125.231789,181.766983 83.600365,181.767303 
	C76.606308,181.767365 69.612259,181.771286 62.618202,181.770081 
	C58.089619,181.769302 55.027630,183.985748 53.433796,188.122635 
	C51.296608,193.669830 54.494850,201.745270 64.952080,201.697159 
	C115.741379,201.463486 166.532333,201.593658 217.322693,201.572769 
	C218.975571,201.572098 220.670288,201.521790 222.273285,201.167648 
	C227.024261,200.118118 230.314743,195.625076 229.948364,190.927521 
	C229.564560,186.006424 225.970718,182.225296 220.972855,181.895660 
	C217.159439,181.644135 213.319489,181.795166 208.494644,181.767136 
M184.501541,286.884949 
	C196.148010,286.864746 207.794662,286.874603 219.440887,286.811646 
	C225.225708,286.780365 229.939407,282.364502 229.962860,277.103058 
	C229.988968,271.246429 225.691803,267.014343 219.312729,267.009491 
	C167.352585,266.969879 115.392250,266.949371 63.432606,267.117004 
	C60.869743,267.125305 57.892735,268.404419 55.846355,270.023987 
	C52.329609,272.807251 52.023663,276.877197 53.727497,280.918243 
	C55.869335,285.998169 60.255535,286.989685 65.206306,286.981018 
	C104.638039,286.911896 144.069839,286.879791 184.501541,286.884949 
M114.260071,309.730560 
	C97.434593,309.736969 80.608948,309.788055 63.783760,309.721619 
	C58.956257,309.702545 55.349598,311.403442 53.472630,316.008514 
	C51.254948,321.449524 54.389698,329.785797 64.838356,329.694397 
	C96.989960,329.413147 129.145569,329.588715 161.299622,329.587189 
	C174.294525,329.586548 187.289490,329.562592 200.284271,329.601349 
	C204.315918,329.613373 208.533325,328.978577 210.077682,325.086304 
	C211.286774,322.039062 211.473145,317.963440 210.514328,314.834991 
	C209.295761,310.859039 205.331619,309.711182 201.149414,309.717560 
	C172.496674,309.761261 143.843781,309.725861 114.260071,309.730560 
M178.500061,224.172241 
	C140.509903,224.169052 102.519737,224.153946 64.529594,224.173096 
	C57.254177,224.176773 52.904549,227.994873 52.869118,234.231293 
	C52.833485,240.503494 57.055408,244.128479 64.522606,244.129730 
	C109.844170,244.137329 155.165726,244.132355 200.487289,244.116501 
	C207.485672,244.114059 211.852798,240.433624 211.995422,234.518600 
	C212.143051,228.395798 207.603134,224.257233 200.494461,224.186722 
	C193.496964,224.117310 186.498230,224.171997 178.500061,224.172241 
M130.500000,158.960526 
	C141.492554,158.958710 152.485123,158.961838 163.477676,158.953339 
	C170.817276,158.947647 175.142441,155.224152 175.120956,148.951462 
	C175.099396,142.658142 170.881668,138.990051 163.454208,138.984818 
	C130.476318,138.961594 97.498383,138.962341 64.520485,138.988266 
	C57.104034,138.994095 52.890236,142.674622 52.879040,148.972626 
	C52.867901,155.241745 57.191036,158.950439 64.543465,158.952759 
	C86.195641,158.959610 107.847824,158.958511 130.500000,158.960526 
M342.073578,309.775513 
	C322.791779,309.771515 303.509888,309.729004 284.228271,309.784546 
	C277.538025,309.803802 273.345032,313.533478 273.145508,319.327545 
	C272.946594,325.103699 277.514923,329.520966 284.176849,329.554993 
	C302.962585,329.650970 321.749359,329.655914 340.535126,329.565704 
	C346.512726,329.537018 350.374512,326.213074 351.046906,321.067322 
	C351.776428,315.484009 349.036285,311.679077 342.073578,309.775513 
M342.592010,201.453400 
	C348.927856,199.680405 351.877197,195.696091 351.062653,190.010269 
	C350.324219,184.855804 346.483063,181.795059 340.389343,181.780472 
	C321.434418,181.735077 302.479309,181.795395 283.524414,181.746567 
	C279.046387,181.735046 275.805267,183.601730 274.061707,187.667664 
	C270.999725,194.808060 275.897125,201.507050 284.374939,201.552719 
	C303.495453,201.655731 322.616943,201.576050 342.592010,201.453400 
M275.621429,112.827873 
	C278.297577,113.923676 280.960205,115.929253 283.652008,115.969177 
	C302.614319,116.250443 321.582947,116.173988 340.548706,116.066383 
	C342.608002,116.054695 344.927490,115.560555 346.665924,114.520607 
	C350.919647,111.976051 351.922974,107.785378 350.805267,103.224052 
	C349.734283,98.853088 345.542175,96.196838 339.952820,96.180763 
	C321.485626,96.127647 303.016327,96.325058 284.551666,96.104034 
	C275.514465,95.995850 269.949188,105.192307 275.621429,112.827873 
M274.039429,238.211411 
	C276.063690,242.409500 279.413300,244.167358 284.055878,244.149826 
	C302.854462,244.078918 321.653564,244.165283 340.452362,244.128983 
	C346.803833,244.116730 350.915649,240.420853 351.128937,234.776382 
	C351.353363,228.837067 347.386932,224.295776 341.033661,224.234360 
	C321.737488,224.047791 302.436005,224.002701 283.141479,224.264008 
	C275.949768,224.361435 272.133881,230.290649 274.039429,238.211411 
M348.863525,437.780670 
	C346.070984,436.571350 343.294769,434.360382 340.483246,434.314484 
	C321.523895,434.005127 302.556610,434.081207 283.592957,434.198486 
	C277.608673,434.235504 273.198273,438.654724 273.139771,444.075073 
	C273.077759,449.817444 277.441772,454.094055 283.801971,454.117249 
	C302.599731,454.185791 321.406158,453.793060 340.192047,454.264618 
	C348.085693,454.462769 354.523407,446.075989 348.863525,437.780670 
M289.579407,286.956604 
	C306.228760,286.957397 322.878143,286.960846 339.527496,286.957794 
	C346.832550,286.956451 351.165466,283.185822 351.114716,276.891327 
	C351.065155,270.742645 346.939880,267.043304 339.885345,266.996368 
	C331.053345,266.937622 322.220642,266.988068 313.388245,266.989655 
	C303.389099,266.991455 293.389130,266.914948 283.391113,267.021484 
	C277.646790,267.082703 273.425995,271.164276 273.185089,276.536560 
	C272.957306,281.615356 276.685822,285.968658 282.126984,286.721527 
	C284.258057,287.016357 286.448120,286.884583 289.579407,286.956604 
M334.434113,138.991333 
	C317.604126,138.991608 300.774048,138.955826 283.944244,139.010712 
	C277.619263,139.031326 273.123840,143.293259 273.161133,148.984299 
	C273.198730,154.722916 277.619232,158.813950 284.023132,158.948792 
	C287.354309,159.018951 290.688202,158.961548 294.020874,158.961243 
	C309.184326,158.959854 324.347809,158.963623 339.511261,158.954514 
	C346.832703,158.950119 351.181091,155.181381 351.137177,148.910095 
	C351.093140,142.621033 346.876160,139.045593 339.406921,138.975204 
	C338.074158,138.962646 336.741089,138.985107 334.434113,138.991333 
z"/>
<path fill="#030303" opacity="1.000000" stroke="none" 
	d="
M67.168030,434.153961 
	C123.913918,434.148865 180.182343,434.143402 236.450775,434.135315 
	C242.497223,434.134460 246.628143,436.482849 247.984680,440.955139 
	C249.385132,445.572205 248.395584,449.766876 244.193695,452.292725 
	C242.078049,453.564514 239.194382,454.049835 236.656296,454.055115 
	C186.713348,454.158905 136.770157,454.139862 86.827019,454.145782 
	C79.502113,454.146637 72.176720,454.200623 64.852432,454.133484 
	C56.950882,454.061035 52.792580,450.494751 52.867737,444.013336 
	C52.938957,437.870758 57.223080,434.287781 64.693329,434.130951 
	C65.358627,434.116974 66.024796,434.144562 67.168030,434.153961 
z"/>
<path fill="#030303" opacity="1.000000" stroke="none" 
	d="
M55.959351,98.932106 
	C59.026417,97.815392 61.825172,96.272926 64.627556,96.266312 
	C121.920662,96.131134 179.214188,96.163704 236.507629,96.187164 
	C243.110672,96.189865 247.209106,98.983528 248.248352,103.988304 
	C249.252350,108.823425 247.270935,113.189743 242.867416,115.116150 
	C241.264053,115.817574 239.351334,116.086472 237.579346,116.088028 
	C179.786285,116.138855 121.993164,116.112740 64.200134,116.174400 
	C59.650833,116.179253 55.961800,115.002182 53.894295,110.703110 
	C51.880497,106.515709 52.583641,102.655846 55.959351,98.932106 
z"/>
<path fill="#060606" opacity="1.000000" stroke="none" 
	d="
M208.992981,181.767120 
	C213.319489,181.795166 217.159439,181.644135 220.972855,181.895660 
	C225.970718,182.225296 229.564560,186.006424 229.948364,190.927521 
	C230.314743,195.625076 227.024261,200.118118 222.273285,201.167648 
	C220.670288,201.521790 218.975571,201.572098 217.322693,201.572769 
	C166.532333,201.593658 115.741379,201.463486 64.952080,201.697159 
	C54.494850,201.745270 51.296608,193.669830 53.433796,188.122635 
	C55.027630,183.985748 58.089619,181.769302 62.618202,181.770081 
	C69.612259,181.771286 76.606308,181.767365 83.600365,181.767303 
	C125.231789,181.766983 166.863220,181.767136 208.992981,181.767120 
z"/>
<path fill="#020202" opacity="1.000000" stroke="none" 
	d="
M184.001587,286.860657 
	C144.069839,286.879791 104.638039,286.911896 65.206306,286.981018 
	C60.255535,286.989685 55.869335,285.998169 53.727497,280.918243 
	C52.023663,276.877197 52.329609,272.807251 55.846355,270.023987 
	C57.892735,268.404419 60.869743,267.125305 63.432606,267.117004 
	C115.392250,266.949371 167.352585,266.969879 219.312729,267.009491 
	C225.691803,267.014343 229.988968,271.246429 229.962860,277.103058 
	C229.939407,282.364502 225.225708,286.780365 219.440887,286.811646 
	C207.794662,286.874603 196.148010,286.864746 184.001587,286.860657 
z"/>
<path fill="#060606" opacity="1.000000" stroke="none" 
	d="
M114.725510,309.723236 
	C143.843781,309.725861 172.496674,309.761261 201.149414,309.717560 
	C205.331619,309.711182 209.295761,310.859039 210.514328,314.834991 
	C211.473145,317.963440 211.286774,322.039062 210.077682,325.086304 
	C208.533325,328.978577 204.315918,329.613373 200.284271,329.601349 
	C187.289490,329.562592 174.294525,329.586548 161.299622,329.587189 
	C129.145569,329.588715 96.989960,329.413147 64.838356,329.694397 
	C54.389698,329.785797 51.254948,321.449524 53.472630,316.008514 
	C55.349598,311.403442 58.956257,309.702545 63.783760,309.721619 
	C80.608948,309.788055 97.434593,309.736969 114.725510,309.723236 
z"/>
<path fill="#040404" opacity="1.000000" stroke="none" 
	d="
M179.000061,224.172241 
	C186.498230,224.171997 193.496964,224.117310 200.494461,224.186722 
	C207.603134,224.257233 212.143051,228.395798 211.995422,234.518600 
	C211.852798,240.433624 207.485672,244.114059 200.487289,244.116501 
	C155.165726,244.132355 109.844170,244.137329 64.522606,244.129730 
	C57.055408,244.128479 52.833485,240.503494 52.869118,234.231293 
	C52.904549,227.994873 57.254177,224.176773 64.529594,224.173096 
	C102.519737,224.153946 140.509903,224.169052 179.000061,224.172241 
z"/>
<path fill="#020202" opacity="1.000000" stroke="none" 
	d="
M130.000000,158.960526 
	C107.847824,158.958511 86.195641,158.959610 64.543465,158.952759 
	C57.191036,158.950439 52.867901,155.241745 52.879040,148.972626 
	C52.890236,142.674622 57.104034,138.994095 64.520485,138.988266 
	C97.498383,138.962341 130.476318,138.961594 163.454208,138.984818 
	C170.881668,138.990051 175.099396,142.658142 175.120956,148.951462 
	C175.142441,155.224152 170.817276,158.947647 163.477676,158.953339 
	C152.485123,158.961838 141.492554,158.958710 130.000000,158.960526 
z"/>
<path fill="#060606" opacity="1.000000" stroke="none" 
	d="
M342.513062,309.801575 
	C349.036285,311.679077 351.776428,315.484009 351.046906,321.067322 
	C350.374512,326.213074 346.512726,329.537018 340.535126,329.565704 
	C321.749359,329.655914 302.962585,329.650970 284.176849,329.554993 
	C277.514923,329.520966 272.946594,325.103699 273.145508,319.327545 
	C273.345032,313.533478 277.538025,309.803802 284.228271,309.784546 
	C303.509888,309.729004 322.791779,309.771515 342.513062,309.801575 
z"/>
<path fill="#060606" opacity="1.000000" stroke="none" 
	d="
M342.165039,201.512054 
	C322.616943,201.576050 303.495453,201.655731 284.374939,201.552719 
	C275.897125,201.507050 270.999725,194.808060 274.061707,187.667664 
	C275.805267,183.601730 279.046387,181.735046 283.524414,181.746567 
	C302.479309,181.795395 321.434418,181.735077 340.389343,181.780472 
	C346.483063,181.795059 350.324219,184.855804 351.062653,190.010269 
	C351.877197,195.696091 348.927856,199.680405 342.165039,201.512054 
z"/>
<path fill="#040404" opacity="1.000000" stroke="none" 
	d="
M275.377289,112.530098 
	C269.949188,105.192307 275.514465,95.995850 284.551666,96.104034 
	C303.016327,96.325058 321.485626,96.127647 339.952820,96.180763 
	C345.542175,96.196838 349.734283,98.853088 350.805267,103.224052 
	C351.922974,107.785378 350.919647,111.976051 346.665924,114.520607 
	C344.927490,115.560555 342.608002,116.054695 340.548706,116.066383 
	C321.582947,116.173988 302.614319,116.250443 283.652008,115.969177 
	C280.960205,115.929253 278.297577,113.923676 275.377289,112.530098 
z"/>
<path fill="#040404" opacity="1.000000" stroke="none" 
	d="
M273.951416,237.836365 
	C272.133881,230.290649 275.949768,224.361435 283.141479,224.264008 
	C302.436005,224.002701 321.737488,224.047791 341.033661,224.234360 
	C347.386932,224.295776 351.353363,228.837067 351.128937,234.776382 
	C350.915649,240.420853 346.803833,244.116730 340.452362,244.128983 
	C321.653564,244.165283 302.854462,244.078918 284.055878,244.149826 
	C279.413300,244.167358 276.063690,242.409500 273.951416,237.836365 
z"/>
<path fill="#040404" opacity="1.000000" stroke="none" 
	d="
M349.095825,438.097534 
	C354.523407,446.075989 348.085693,454.462769 340.192047,454.264618 
	C321.406158,453.793060 302.599731,454.185791 283.801971,454.117249 
	C277.441772,454.094055 273.077759,449.817444 273.139771,444.075073 
	C273.198273,438.654724 277.608673,434.235504 283.592957,434.198486 
	C302.556610,434.081207 321.523895,434.005127 340.483246,434.314484 
	C343.294769,434.360382 346.070984,436.571350 349.095825,438.097534 
z"/>
<path fill="#030303" opacity="1.000000" stroke="none" 
	d="
M289.095367,286.951843 
	C286.448120,286.884583 284.258057,287.016357 282.126984,286.721527 
	C276.685822,285.968658 272.957306,281.615356 273.185089,276.536560 
	C273.425995,271.164276 277.646790,267.082703 283.391113,267.021484 
	C293.389130,266.914948 303.389099,266.991455 313.388245,266.989655 
	C322.220642,266.988068 331.053345,266.937622 339.885345,266.996368 
	C346.939880,267.043304 351.065155,270.742645 351.114716,276.891327 
	C351.165466,283.185822 346.832550,286.956451 339.527496,286.957794 
	C322.878143,286.960846 306.228760,286.957397 289.095367,286.951843 
z"/>
<path fill="#020202" opacity="1.000000" stroke="none" 
	d="
M334.921143,138.991364 
	C336.741089,138.985107 338.074158,138.962646 339.406921,138.975204 
	C346.876160,139.045593 351.093140,142.621033 351.137177,148.910095 
	C351.181091,155.181381 346.832703,158.950119 339.511261,158.954514 
	C324.347809,158.963623 309.184326,158.959854 294.020874,158.961243 
	C290.688202,158.961548 287.354309,159.018951 284.023132,158.948792 
	C277.619232,158.813950 273.198730,154.722916 273.161133,148.984299 
	C273.123840,143.293259 277.619263,139.031326 283.944244,139.010712 
	C300.774048,138.955826 317.604126,138.991608 334.921143,138.991364 
z"/>
</svg>